<svg width="176" height="32" viewBox="0 0 176 32" fill="none" xmlns="http://www.w3.org/2000/svg">
<path fill-rule="evenodd" clip-rule="evenodd" d="M71.6393 0.72681H71.6402C72.1498 0.733102 72.6583 0.739298 73.1642 0.740442C73.6658 0.741586 74.1691 0.737677 74.673 0.733769H74.6745C75.9289 0.724141 77.1873 0.714513 78.4337 0.78248C81.2067 0.933572 83.9797 1.7549 85.8749 3.88895C87.0611 5.22466 87.6591 7.0979 87.5391 8.87363C87.4008 10.9151 86.3562 12.321 84.8581 13.6206C85.405 13.9208 85.958 14.2457 86.4596 14.617C87.9442 15.7159 88.7969 17.2453 89.0495 19.0606C89.3515 21.2311 88.7895 23.1231 87.4901 24.8597C86.8361 25.5937 86.0948 26.2073 85.2354 26.6887C84.183 27.2781 83.0252 27.6352 81.8325 27.8032C80.3007 28.0191 68.5757 28.1365 67.5334 27.8019C67.2463 27.7097 67.0592 27.4739 66.935 27.2113C66.8171 26.9623 66.8177 26.6034 66.8111 26.3291C66.7334 23.1672 66.7676 19.985 66.8017 16.8084C66.8185 15.2413 66.8353 13.6756 66.8387 12.1142C66.8413 10.8745 66.8194 9.62937 66.7974 8.38347C66.7641 6.49525 66.7308 4.60533 66.7831 2.73027C66.7948 2.30617 66.8146 1.72773 67.0241 1.34881C67.2303 0.975896 67.4844 0.883049 67.8645 0.756456C69.1128 0.695829 70.3792 0.711367 71.6393 0.72681ZM74.9928 16.9875C75.2665 16.9855 75.581 16.9717 75.9187 16.957C77.2881 16.8972 79.038 16.8207 79.9851 17.4429C80.374 17.6985 80.6201 18.0692 80.6888 18.5292C80.8141 19.3675 80.6189 19.919 80.1133 20.5789C79.0493 21.4086 77.3413 21.344 75.9041 21.2895C75.7244 21.2828 75.5489 21.2762 75.3795 21.2714C75.256 21.268 75.1358 21.2656 75.0194 21.2649L74.9928 16.9875ZM75.461 7.18303C75.3184 7.18579 75.1779 7.18856 75.0404 7.18989C75.0324 8.55372 75.0313 9.91764 75.0371 11.2815C75.2596 11.2858 75.4887 11.2967 75.721 11.3078C76.8498 11.3614 78.0564 11.4187 78.9765 10.7539C79.3505 10.2621 79.6835 9.59 79.6039 8.95027C79.5416 8.44953 79.148 8.028 78.7443 7.75937C77.8104 7.13765 76.5725 7.16158 75.461 7.18303Z" fill="#0077B3"/>
<path d="M144.401 0.476761C145.151 0.400232 145.951 0.424633 146.702 0.473049C149.44 0.649729 152.433 1.58409 154.273 3.72787C155.2 4.80807 155.73 6.32166 155.576 7.74955C155.522 8.2468 155.33 8.81608 154.91 9.12454C154.621 9.33655 154.236 9.39356 153.888 9.42538C152.743 9.52983 151.543 9.39922 150.389 9.41992C149.694 9.4326 148.938 9.62393 148.255 9.5021C147.357 9.34202 147.395 8.63842 146.928 8.0299C146.568 7.56057 146.023 7.3101 145.439 7.26734C144.802 7.22049 144.065 7.39951 143.581 7.83174C143.303 8.08007 143.126 8.41762 143.123 8.79382C143.119 9.36896 143.473 9.86406 143.92 10.1948C144.663 10.7441 145.661 11.0409 146.524 11.3534C149.119 12.2929 152.579 13.1078 154.591 15.0821C155.993 16.4578 156.617 18.1842 156.624 20.1273C156.633 22.1989 155.868 23.8995 154.401 25.3547C151.794 27.9386 148.369 28.6549 144.819 28.6584C142.216 28.6586 139.321 28.0592 137.158 26.5542C135.35 25.2954 134.186 23.4021 133.827 21.2323C133.731 20.6541 133.683 19.9932 134.046 19.4958C135.097 19.0635 140.836 19.0499 142.06 19.2244C143.009 19.3597 142.814 20.6625 143.337 21.2718C143.747 21.7477 144.394 21.9424 145.003 21.9763C145.812 22.0216 146.723 21.759 147.319 21.197C147.573 20.9582 147.773 20.6357 147.747 20.2747C147.701 19.6459 147.002 19.1409 146.498 18.8673C144.603 17.8381 141.775 17.3399 139.686 16.5377C138.758 16.181 137.878 15.7318 137.111 15.0932C135.552 13.795 134.684 11.9307 134.512 9.92751C134.322 7.7189 135.067 5.57238 136.516 3.90339C138.513 1.6042 141.451 0.699515 144.401 0.476761Z" fill="#0077B3"/>
<path fill-rule="evenodd" clip-rule="evenodd" d="M118.272 0.747173L118.206 0.750319C117.648 0.961275 117.318 1.14849 117.07 1.70748C116.66 2.631 116.331 3.61371 116.004 4.58794C115.858 5.02205 115.713 5.45445 115.562 5.87913C114.736 8.17848 113.888 10.4695 113.017 12.7524C111.867 15.7333 110.683 18.7009 109.466 21.6553C109.245 22.1901 109.016 22.7232 108.787 23.2565C108.379 24.2058 107.971 25.156 107.607 26.1187L107.583 26.1815C107.409 26.6408 107.207 27.1732 107.342 27.6535C107.643 27.9935 108.039 28.0219 108.476 28.0533L108.496 28.0547C109.61 28.1349 113.445 28.1401 114.438 28.0182C114.785 27.9758 115.134 27.829 115.391 27.592C115.908 27.1166 116.143 26.2442 116.356 25.4525C116.442 25.1334 116.525 24.8275 116.621 24.5658L123.72 24.5598L125.193 24.5645C125.279 24.7992 125.358 25.0899 125.442 25.4016C125.696 26.3399 126.001 27.4685 126.717 27.8299C126.953 27.9491 127.216 28.0102 127.478 28.0378C128.326 28.1263 133.381 28.0983 134.037 27.8435C134.238 27.7656 134.315 27.6781 134.392 27.4842C134.486 27.2508 134.478 27.0725 134.395 26.8328C133.299 23.6587 132.104 20.511 130.909 17.3643C130.132 15.3201 129.356 13.2764 128.608 11.2261L126.265 4.84361C126.149 4.52684 126.041 4.20206 125.933 3.87567C125.688 3.14061 125.44 2.39726 125.101 1.71759L125.071 1.6562C124.888 1.28777 124.733 0.974716 124.305 0.850792C123.159 0.519059 119.663 0.682352 118.272 0.747173ZM122.551 15.9913C122.045 14.2843 121.459 12.3093 121.045 11.7075C120.661 12.7537 120.314 13.8131 119.968 14.8723C119.593 16.0174 119.219 17.1624 118.796 18.2903L120.832 18.3035L123.274 18.2964C123.085 17.7935 122.83 16.9332 122.551 15.9913Z" fill="#0077B3"/>
<path d="M91.1648 0.751608C93.5493 0.61202 96.0247 0.749658 98.42 0.748682C100.766 0.747901 103.218 0.600505 105.55 0.773866C105.983 0.806079 106.581 0.86718 106.957 1.08544C107.168 1.20785 107.209 1.32089 107.269 1.5495C107.453 2.25212 107.466 7.06681 107.144 7.61891C106.816 7.86451 106.483 7.93772 106.079 7.98965C105.18 8.10503 104.214 8.03885 103.306 8.03748L98.3288 8.02245C98.3173 8.95811 98.3171 9.8937 98.3282 10.8292C100.657 10.9175 103.478 10.6307 105.717 10.8878C106.106 10.9325 106.562 11.0086 106.814 11.3315C107.112 12.1827 107.071 16.8707 106.716 17.622C105.857 18.2832 99.7903 17.9884 98.3284 17.9775L98.31 20.827C100.886 21.0947 103.571 20.6597 106.157 20.8457C106.561 20.8746 107.199 20.9149 107.466 21.2637C107.829 21.7387 107.74 22.6768 107.666 23.2392C107.517 24.3711 106.666 27.1034 105.735 27.7615C105.553 27.8901 105.346 27.985 105.122 28.0008C104.334 28.0563 103.494 27.9819 102.699 27.9782L97.2097 27.9565C95.7823 27.952 92.7851 28.1303 91.501 27.9319C91.033 27.8597 90.6953 27.7179 90.4076 27.3388C90.2823 26.9073 90.2383 26.4714 90.2269 26.0241C90.1823 24.2648 90.2492 22.4921 90.2559 20.7315C90.2345 17.1508 90.2436 13.5702 90.2833 9.98975L90.2841 4.83459C90.2849 3.84147 90.1815 2.72692 90.3806 1.75742C90.4867 1.24104 90.7315 1.02356 91.1648 0.751608Z" fill="#0077B3"/>
<path d="M158.116 0.862676C161.72 0.78439 165.335 0.876928 168.94 0.879662C170.714 0.880833 173.112 0.680918 174.828 0.940765C175.321 1.01554 175.585 1.42454 175.864 1.79C175.876 1.92471 175.886 2.05805 175.892 2.19315C175.945 3.3323 176.248 7.18686 175.519 7.90764C174.736 8.6823 171.632 8.38048 170.468 8.39805C170.418 13.5695 170.399 18.7409 170.411 23.9122C170.393 24.8914 170.698 26.608 170.144 27.4364C169.888 27.8196 169.451 27.991 169.012 28.066C168.273 28.1923 163.782 28.1697 162.963 28.067C162.611 28.0229 162.353 27.9512 162.061 27.7503C161.846 27.2646 161.751 26.7476 161.711 26.2203C161.56 24.2187 161.711 22.1276 161.726 20.1136L161.805 8.34338C160.407 8.29321 158.544 8.64052 157.267 8.03239C157.021 7.71202 156.914 7.35476 156.841 6.9602C156.647 5.91476 156.541 2.16855 157.128 1.37378C157.384 1.02823 157.712 0.940571 158.116 0.862676Z" fill="#0077B3"/>
<path fill-rule="evenodd" clip-rule="evenodd" d="M8.71086 0.0892128C6.36523 -0.00506432 3.95177 -0.00172793 1.60606 0.0810148C1.05818 0.231153 0.552746 0.433243 0.266614 0.95763C0.101211 1.26086 0.0904552 1.67715 0.0813007 2.03024L0.0785759 2.13071C-0.0161003 5.26673 0.0150441 8.42211 0.0461647 11.5729C0.0627527 13.2542 0.0793408 14.9341 0.0767832 16.6092C0.076114 17.047 0.0632546 17.6954 0.048268 18.4526C-0.00230878 21.0057 -0.0773852 24.7949 0.207504 25.9109C0.656911 26.3366 1.178 26.6464 1.7342 26.9137C3.10195 27.5707 4.54937 28.1267 5.98645 28.6787C6.63499 28.9279 7.28142 29.1762 7.91746 29.4327C8.60438 29.7096 9.28872 30.004 9.97371 30.2988C11.0624 30.7673 12.1528 31.2365 13.2577 31.637L13.3636 31.6757C13.7635 31.8222 14.3201 32.0263 14.7102 31.9972C15.2263 31.9589 27.5368 27.0359 28.7672 26.3754C29.4884 25.6745 29.4933 25.2448 29.5041 24.2912L29.5045 24.2599C29.5308 21.9894 29.5162 19.717 29.5016 17.4444C29.4903 15.6854 29.479 13.9263 29.4867 12.1683C29.4902 11.3677 29.5028 10.5344 29.5156 9.68584C29.5532 7.19984 29.5928 4.58191 29.4122 2.26464C29.3733 1.76389 29.2938 1.00663 29.0059 0.588434C28.6386 0.334295 28.2964 0.21714 27.8554 0.13964C26.5349 -0.0926687 22.3499 0.0146681 20.8869 0.106657C20.0125 0.630949 17.5451 3.36899 15.9259 5.16578C15.4416 5.70323 15.0332 6.15641 14.766 6.44096L11.4911 2.91924C11.277 2.6856 11.0606 2.43499 10.8399 2.17952C10.1845 1.42053 9.49184 0.618556 8.71086 0.0892128ZM21.7103 10.3672C21.6308 9.9702 21.5515 9.57345 21.4717 9.17728C21.1712 9.49586 20.8188 9.909 20.4372 10.3562C19.3913 11.5822 18.1266 13.0645 17.1139 13.5578C16.5717 13.8219 15.9819 13.8951 15.3857 13.9137C15.2046 13.9194 15.0152 13.929 14.8207 13.9389C13.6189 14.0002 12.2222 14.0714 11.3677 13.2605C10.7781 12.7008 10.2588 12.0628 9.73935 11.4246C9.11803 10.6612 8.49653 9.89756 7.75416 9.26765C7.66304 9.77802 7.57155 10.2988 7.47878 10.8267C6.92162 13.9978 6.31934 17.4258 5.48155 20.4003C6.40548 21.2039 7.33874 21.9996 8.2725 22.7959C10.4045 24.6139 12.5391 26.4342 14.5711 28.3546C15.576 27.4795 16.5974 26.6233 17.6188 25.7672C18.7088 24.8535 19.7987 23.9399 20.8683 23.0036C21.8982 22.1096 22.935 21.2237 23.9786 20.3458C23.052 17.0724 22.3787 13.7077 21.7103 10.3672Z" fill="#CC2996"/>
<path fill-rule="evenodd" clip-rule="evenodd" d="M39.0881 0.698014C37.685 0.692104 36.2786 0.686193 34.8813 0.745295C34.4462 0.970359 34.0799 1.16816 33.9187 1.65833C33.6426 2.49786 33.719 9.81992 33.7628 14.0123C33.7752 15.1976 33.785 16.1328 33.7834 16.6004L33.7554 23.0688C33.7535 23.4235 33.7442 23.7808 33.7348 24.1386C33.7181 24.7808 33.7013 25.425 33.7268 26.0602C33.7403 26.3964 33.7991 26.7608 33.9563 27.0622C34.1627 27.4582 34.5142 27.6911 34.9373 27.812C35.8028 28.059 40.1293 28.1196 40.8595 27.7083C41.3143 27.4519 41.5767 26.992 41.683 26.4924C41.8772 25.5794 41.8066 24.0467 41.7432 22.6714C41.7113 21.9788 41.6812 21.3261 41.6877 20.8125C42.6119 22.2652 45.6471 27.0033 46.791 27.8192C46.7986 27.8247 46.8059 27.8303 46.8133 27.836C48.3124 28.0529 49.928 28.0091 51.4987 27.9666C52.0514 27.9516 52.5986 27.9369 53.1332 27.9336C53.2687 27.9348 53.4179 27.9407 53.5748 27.9469C54.2457 27.9734 55.0578 28.0055 55.5498 27.6919C55.6156 27.363 55.379 27.0086 55.1911 26.727L55.1466 26.6602C54.7903 26.1206 54.3747 25.6087 53.9618 25.1003C53.7903 24.8889 53.6192 24.6782 53.4531 24.4663C53.1393 24.0662 52.8211 23.6651 52.5018 23.2627C51.3929 21.8652 50.2703 20.4506 49.2727 18.9955C51.7216 17.8161 53.4938 16.5244 54.4116 13.8628C55.2447 11.4472 55.0969 8.56429 53.9687 6.2657C52.8201 3.92536 50.8044 2.22761 48.3338 1.41315C47.8503 1.25605 47.3598 1.12479 46.8625 1.01936C46.3651 0.913927 45.8636 0.834997 45.3579 0.782377C44.1645 0.660837 42.939 0.676184 41.7268 0.691341C41.3559 0.696012 40.9864 0.700683 40.6194 0.70135C40.1098 0.702303 39.5992 0.700206 39.0881 0.698014ZM42.3001 8.23818C42.0807 8.24648 41.869 8.25448 41.6697 8.25706C41.7408 10.0426 41.7656 11.8287 41.7441 13.6154C41.9663 13.6152 42.1912 13.6203 42.4172 13.6253C43.6345 13.6526 44.8802 13.6805 45.8734 12.8954C46.4331 12.1975 46.7182 11.5571 46.6389 10.6441C46.5801 9.96548 46.2643 9.29296 45.7327 8.85656C44.8618 8.142 43.4719 8.19414 42.3001 8.23818Z" fill="#CC2996"/>
<path d="M60.1569 19.5513C60.2522 19.5444 60.3476 19.5406 60.4432 19.5399C60.5387 19.5394 60.6342 19.542 60.7296 19.5475C60.8251 19.5533 60.9202 19.5621 61.0149 19.5739C61.1097 19.5857 61.204 19.6008 61.2979 19.619C61.3917 19.6371 61.4849 19.6582 61.5773 19.6825C61.6697 19.7067 61.7612 19.7339 61.8518 19.7641C61.9424 19.7943 62.0319 19.8274 62.1202 19.8636C62.2088 19.8997 62.2959 19.9387 62.3816 19.9806C62.4675 20.0223 62.5519 20.0669 62.6348 20.1143C62.7177 20.1617 62.799 20.2118 62.8786 20.2646C62.9582 20.3173 63.036 20.3726 63.1118 20.4304C63.1878 20.4882 63.2617 20.5484 63.3337 20.6111C63.4056 20.6739 63.4754 20.7389 63.5432 20.8062C63.6108 20.8735 63.6761 20.9428 63.7392 21.0143C63.8022 21.0859 63.8629 21.1595 63.9211 21.2351C63.9793 21.3106 64.035 21.388 64.0881 21.4672C64.1412 21.5465 64.1917 21.6274 64.2395 21.7099C64.2871 21.7924 64.3321 21.8764 64.3744 21.9619C64.4165 22.0474 64.4558 22.1342 64.4922 22.2222C64.5288 22.3103 64.5623 22.3994 64.5929 22.4896C64.6234 22.5799 64.651 22.6712 64.6755 22.7633C64.7001 22.8554 64.7215 22.9481 64.7399 23.0415C64.7583 23.1351 64.7736 23.2291 64.7858 23.3236C64.798 23.4181 64.8071 23.5129 64.813 23.6081C64.8188 23.7031 64.8216 23.7982 64.8214 23.8935C64.821 23.9888 64.8175 24.084 64.8108 24.1791C64.8042 24.2741 64.7944 24.3688 64.7814 24.4632C64.7685 24.5577 64.7525 24.6516 64.7333 24.7449C64.7142 24.8382 64.6921 24.9308 64.6669 25.0227C64.6416 25.1146 64.6133 25.2055 64.5821 25.2956C64.5508 25.3857 64.5166 25.4746 64.4795 25.5623C64.4423 25.6502 64.4023 25.7366 64.3595 25.8218C64.3167 25.9069 64.271 25.9906 64.2226 26.0728C64.1742 26.1549 64.1231 26.2354 64.0695 26.3141C64.0158 26.393 63.9596 26.47 63.9007 26.5451C63.842 26.6202 63.7808 26.6932 63.7172 26.7643C63.6535 26.8355 63.5876 26.9044 63.5195 26.9711C63.4513 27.0378 63.381 27.1023 63.3086 27.1645C63.2361 27.2266 63.1617 27.2863 63.0854 27.3436C63.009 27.4008 62.9308 27.4556 62.8508 27.5077C62.7708 27.5598 62.6891 27.6092 62.6058 27.6559C62.5226 27.7026 62.4378 27.7466 62.3517 27.7879C62.2655 27.829 62.1781 27.8673 62.0895 27.9029C62.0007 27.9383 61.9109 27.9707 61.8201 28.0003C61.7292 28.0298 61.6375 28.0563 61.545 28.0798C61.4523 28.1033 61.359 28.1238 61.2652 28.1413C61.1712 28.1586 61.0767 28.1728 60.9818 28.184C60.8869 28.1952 60.7918 28.2033 60.6963 28.2082C60.6257 28.2119 60.555 28.2138 60.4843 28.2141C60.4135 28.2142 60.3428 28.2126 60.2722 28.2094C60.2016 28.2063 60.1311 28.2014 60.0608 28.1947C59.9903 28.188 59.92 28.1796 59.8501 28.1696C59.7801 28.1595 59.7104 28.1478 59.6409 28.1342C59.5715 28.1208 59.5025 28.1057 59.4338 28.0889C59.3651 28.072 59.2969 28.0535 59.2292 28.0335C59.1613 28.0133 59.094 27.9915 59.0273 27.9681C58.9606 27.9447 58.8945 27.9197 58.8291 27.8931C58.7636 27.8664 58.6988 27.8382 58.6347 27.8084C58.5706 27.7787 58.5072 27.7474 58.4446 27.7145C58.3821 27.6817 58.3203 27.6473 58.2593 27.6114C58.1985 27.5756 58.1385 27.5383 58.0794 27.4995C58.0204 27.4607 57.9623 27.4205 57.9051 27.3789C57.8481 27.3374 57.7921 27.2944 57.7371 27.25C57.682 27.2058 57.6281 27.1602 57.5754 27.1132C57.5227 27.0662 57.471 27.018 57.4205 26.9685C57.3701 26.9191 57.321 26.8684 57.2731 26.8166C57.2252 26.7648 57.1785 26.7119 57.1331 26.6577C57.0878 26.6036 57.0438 26.5484 57.0011 26.4922C56.9585 26.4359 56.9173 26.3787 56.8773 26.3204C56.8375 26.2621 56.7992 26.2029 56.7622 26.1429C56.7253 26.0828 56.6898 26.0217 56.6559 25.9598C56.622 25.898 56.5895 25.8354 56.5586 25.772C56.5276 25.7086 56.4983 25.6444 56.4707 25.5795C56.4429 25.5147 56.4167 25.4492 56.3921 25.3831C56.3676 25.317 56.3446 25.2503 56.3232 25.183C56.3019 25.1158 56.2824 25.0481 56.2645 24.9799C56.2465 24.9117 56.2301 24.8432 56.2155 24.7742C56.2009 24.7051 56.188 24.6358 56.1768 24.5663C56.1654 24.4966 56.1559 24.4267 56.1482 24.3566C56.1403 24.2866 56.1342 24.2163 56.1298 24.1459C56.1253 24.0755 56.1227 24.005 56.1217 23.9345C56.1208 23.8641 56.1216 23.7936 56.1241 23.7231C56.1266 23.6527 56.1308 23.5823 56.1368 23.512C56.1428 23.4417 56.1504 23.3717 56.1597 23.3018C56.1691 23.2319 56.1802 23.1622 56.193 23.0929C56.2058 23.0235 56.2203 22.9545 56.2365 22.8859C56.2527 22.8173 56.2705 22.7491 56.2899 22.6813C56.3095 22.6135 56.3307 22.5462 56.3534 22.4795C56.3762 22.4127 56.4006 22.3465 56.4266 22.2809C56.4526 22.2155 56.4802 22.1506 56.5094 22.0863C56.5387 22.0221 56.5694 21.9587 56.6017 21.8959C56.634 21.8332 56.6678 21.7713 56.7031 21.7101C56.7385 21.649 56.7753 21.5889 56.8135 21.5297C56.8519 21.4703 56.8916 21.412 56.9328 21.3546C56.9739 21.2973 57.0164 21.241 57.0602 21.1857C57.1041 21.1304 57.1493 21.0762 57.1959 21.0231C57.2424 20.97 57.2902 20.918 57.3393 20.8673C57.3883 20.8165 57.4387 20.7669 57.4902 20.7185C57.5417 20.6702 57.5943 20.6232 57.648 20.5776C57.702 20.5318 57.7568 20.4873 57.8127 20.4442C57.8687 20.4011 57.9258 20.3594 57.9838 20.3191C58.0418 20.2787 58.1007 20.2398 58.1607 20.2023C58.2206 20.1649 58.2814 20.1289 58.3432 20.0944C58.4048 20.0599 58.4672 20.027 58.5305 19.9956C58.5938 19.9641 58.6579 19.9342 58.7226 19.9058C58.7874 19.8774 58.8528 19.8507 58.9188 19.8256C58.9849 19.8004 59.0515 19.7769 59.1187 19.7549C59.186 19.733 59.2537 19.7127 59.322 19.694C59.3901 19.6754 59.4587 19.6584 59.5278 19.6432C59.5968 19.6278 59.6662 19.6143 59.7359 19.6024C59.8056 19.5904 59.8756 19.5802 59.9458 19.5718C60.0161 19.5632 60.0864 19.5563 60.1569 19.5513Z" fill="#CC2996"/>
</svg>
